<svg width="45" height="45" viewBox="0 0 45 45" fill="none" xmlns="http://www.w3.org/2000/svg">
<rect x="0.5" y="0.5" width="44" height="44" rx="22" fill="url(#paint0_linear_123_968)"/>
<rect x="0.5" y="0.5" width="44" height="44" rx="22" stroke="#162635"/>
<path d="M20.257 34.1669C14.8798 33.0727 10.8333 28.3181 10.8333 22.6186C10.8333 16.1099 16.1104 10.8335 22.6202 10.8335C28.3144 10.8335 33.0655 14.8707 34.1666 20.2384" stroke="#B0B5C4" stroke-width="0.9975" stroke-linecap="round"/>
<path d="M30.0055 24.6563C30.3966 24.2325 30.5923 24.0205 30.8001 23.8969C31.3016 23.5986 31.9193 23.5894 32.4292 23.8724C32.6405 23.9898 32.8421 24.1957 33.2454 24.6077C33.6486 25.0196 33.8502 25.2255 33.9651 25.4415C34.2422 25.9624 34.2331 26.5932 33.9411 27.1056C33.8201 27.318 33.6127 27.5178 33.1977 27.9174L28.2608 32.6725C27.4745 33.4299 27.0813 33.8085 26.5899 34.0004C26.0986 34.1923 25.5584 34.1782 24.478 34.15L24.331 34.1461C24.0021 34.1376 23.8378 34.1333 23.7421 34.0248C23.6465 33.9163 23.6596 33.7487 23.6856 33.4137L23.6999 33.2318C23.7734 32.2889 23.81 31.8173 23.9942 31.3936C24.1783 30.9697 24.4959 30.6256 25.1311 29.9374L30.0055 24.6563Z" stroke="#B0B5C4" stroke-width="0.9975" stroke-linecap="round"/>
<path d="M31.8334 15.149C30.7429 15.2276 29.3462 15.6498 28.3776 16.9034C26.6283 19.1677 24.8789 19.3566 23.7127 18.6019C21.9633 17.4697 23.4334 15.6359 21.3802 14.6393C20.0421 13.9898 19.8555 12.2224 20.6003 10.8335" stroke="#B0B5C4" stroke-width="0.9975" stroke-linecap="round"/>
<path d="M10.8333 21.3335C11.7228 22.1059 12.9688 22.8131 14.4368 22.8131C17.4698 22.8131 18.0764 23.3925 18.0764 25.7106C18.0764 28.0285 18.0763 28.0285 18.6829 29.7671C19.0775 30.8979 19.2154 32.0288 18.429 33.0002" stroke="#B0B5C4" stroke-width="0.9975" stroke-linecap="round"/>
<path d="M25.5625 18.5624C27.75 16.8127 32.5625 15.9377 29.9374 13.3125C29.9374 10.6546 24.2828 11.1251 21.6249 11.1251C20.3126 9.37517 20.75 12.4375 21.1874 15.0624C23.375 15.9371 22.9046 18.5624 25.5625 18.5624Z" fill="url(#paint1_linear_123_968)" fill-opacity="0.24"/>
<defs>
<linearGradient id="paint0_linear_123_968" x1="-0.0499995" y1="2.7" x2="45.6" y2="44.5" gradientUnits="userSpaceOnUse">
<stop stop-color="#172736"/>
<stop offset="1" stop-color="#03070C"/>
</linearGradient>
<linearGradient id="paint1_linear_123_968" x1="25.5625" y1="10.2502" x2="25.5625" y2="19.8752" gradientUnits="userSpaceOnUse">
<stop stop-color="white" stop-opacity="0"/>
<stop offset="1" stop-color="white"/>
</linearGradient>
</defs>
</svg>
