<svg width="45" height="45" viewBox="0 0 45 45" fill="none" xmlns="http://www.w3.org/2000/svg">
<rect x="0.5" y="0.5" width="44" height="44" rx="22" fill="url(#paint0_linear_123_975)"/>
<rect x="0.5" y="0.5" width="44" height="44" rx="22" stroke="#162635"/>
<path d="M22.6458 15.2082H22.4999M22.7916 15.2082C22.7916 15.3693 22.661 15.4998 22.4999 15.4998C22.3388 15.4998 22.2083 15.3693 22.2083 15.2082C22.2083 15.0471 22.3388 14.9165 22.4999 14.9165C22.661 14.9165 22.7916 15.0471 22.7916 15.2082Z" stroke="#B0B5C4" stroke-width="0.9975" stroke-linecap="round" stroke-linejoin="round"/>
<path d="M14.3333 19V30.6667M18.9999 19V30.6667" stroke="#B0B5C4" stroke-width="0.9975" stroke-linecap="round" stroke-linejoin="round"/>
<path d="M26 19V30.6667M30.6667 19V30.6667" stroke="#B0B5C4" stroke-width="0.9975" stroke-linecap="round" stroke-linejoin="round"/>
<path d="M33.4104 19.0002H11.5895C11.1718 19.0002 10.8333 18.6578 10.8333 18.2354C10.8333 17.9765 10.9627 17.7352 11.1774 17.5942L18.685 12.6592C20.5365 11.4421 21.4624 10.8335 22.4999 10.8335C23.5374 10.8335 24.4633 11.4421 26.3148 12.6592L33.8225 17.5942C34.0371 17.7352 34.1666 17.9765 34.1666 18.2354C34.1666 18.6578 33.828 19.0002 33.4104 19.0002Z" stroke="#B0B5C4" stroke-width="0.9975" stroke-linecap="round" stroke-linejoin="round"/>
<path d="M33.0462 32.1751L32.2438 31.3502C31.9157 31.013 31.7517 30.8443 31.5432 30.7555C31.3346 30.6667 31.1027 30.6667 30.6388 30.6667H14.361C13.8972 30.6667 13.6652 30.6667 13.4567 30.7555C13.2481 30.8443 13.0841 31.013 12.7561 31.3502L11.9536 32.1751C11.1291 33.0227 10.7168 33.4466 10.8619 33.8066C11.007 34.1667 11.59 34.1667 12.7561 34.1667H32.2438C33.4098 34.1667 33.9929 34.1667 34.1379 33.8066C34.283 33.4466 33.8707 33.0227 33.0462 32.1751Z" stroke="#B0B5C4" stroke-width="0.9975" stroke-linecap="round" stroke-linejoin="round"/>
<path d="M31.25 22.4125V20.1375C31.25 19.8358 30.9986 19.5465 30.551 19.3332C30.1035 19.1198 29.4965 19 28.8636 19H16.1364C15.5035 19 14.8965 19.1198 14.449 19.3332C14.0014 19.5465 13.75 19.8358 13.75 20.1375V29.2375C13.75 29.5392 14.0014 29.8285 14.449 30.0418C14.8965 30.2551 15.5035 30.375 16.1364 30.375H28.8636C29.4965 30.375 30.1035 30.2551 30.551 30.0418C30.9986 29.8285 31.25 29.5392 31.25 29.2375V26.5833" fill="url(#paint1_linear_123_975)" fill-opacity="0.24"/>
<defs>
<linearGradient id="paint0_linear_123_975" x1="-0.0499995" y1="2.7" x2="45.6" y2="44.5" gradientUnits="userSpaceOnUse">
<stop stop-color="#172736"/>
<stop offset="1" stop-color="#03070C"/>
</linearGradient>
<linearGradient id="paint1_linear_123_975" x1="22.5" y1="19" x2="22.5" y2="30.375" gradientUnits="userSpaceOnUse">
<stop stop-color="white" stop-opacity="0"/>
<stop offset="1" stop-color="white"/>
</linearGradient>
</defs>
</svg>
