<svg width="45" height="45" viewBox="0 0 45 45" fill="none" xmlns="http://www.w3.org/2000/svg">
<rect x="0.5" y="0.5" width="44" height="44" rx="22" fill="url(#paint0_linear_123_955)"/>
<rect x="0.5" y="0.5" width="44" height="44" rx="22" stroke="#162635"/>
<path d="M24.8333 34.1666V17.8333C24.8333 14.5334 24.8333 12.8835 23.8081 11.8584C22.783 10.8333 21.1331 10.8333 17.8333 10.8333C14.5334 10.8333 12.8835 10.8333 11.8584 11.8584C10.8333 12.8835 10.8333 14.5334 10.8333 17.8333V27.1666C10.8333 30.4664 10.8333 32.1163 11.8584 33.1414C12.8835 34.1666 14.5334 34.1666 17.8333 34.1666H24.8333Z" stroke="#B0B5C4" stroke-width="0.9975" stroke-linecap="round"/>
<path d="M16.0834 21.3334H14.9167M20.7501 21.3334H19.5834M16.0834 16.6667H14.9167M16.0834 26.0001H14.9167M20.7501 16.6667H19.5834M20.7501 26.0001H19.5834" stroke="#B0B5C4" stroke-width="0.9975" stroke-linecap="round"/>
<path d="M30.0834 25.9999H28.9167M30.0834 21.3333H28.9167" stroke="#B0B5C4" stroke-width="0.9975" stroke-linecap="round"/>
<path d="M29.4999 17.8333H24.8333V34.1666H29.4999C31.6998 34.1666 32.7997 34.1666 33.4832 33.4832C34.1666 32.7997 34.1666 31.6998 34.1666 29.4999V22.4999C34.1666 20.3001 34.1666 19.2001 33.4832 18.5167C32.7997 17.8333 31.6998 17.8333 29.4999 17.8333Z" stroke="#B0B5C4" stroke-width="0.9975" stroke-linecap="round"/>
<path d="M25.125 17.95V13.4C25.125 12.7966 24.9238 12.218 24.5658 11.7913C24.2078 11.3647 23.7222 11.125 23.2159 11.125H13.0341C12.5278 11.125 12.0422 11.3647 11.6842 11.7913C11.3261 12.218 11.125 12.7966 11.125 13.4V31.6C11.125 32.2033 11.3261 32.782 11.6842 33.2087C12.0422 33.6353 12.5278 33.875 13.0341 33.875H23.2159C23.7222 33.875 24.2078 33.6353 24.5658 33.2087C24.9238 32.782 25.125 32.2033 25.125 31.6V26.2917" fill="url(#paint1_linear_123_955)" fill-opacity="0.24"/>
<defs>
<linearGradient id="paint0_linear_123_955" x1="-0.0499995" y1="2.7" x2="45.6" y2="44.5" gradientUnits="userSpaceOnUse">
<stop stop-color="#172736"/>
<stop offset="1" stop-color="#03070C"/>
</linearGradient>
<linearGradient id="paint1_linear_123_955" x1="18.125" y1="11.125" x2="18.125" y2="33.875" gradientUnits="userSpaceOnUse">
<stop stop-color="white" stop-opacity="0"/>
<stop offset="1" stop-color="white"/>
</linearGradient>
</defs>
</svg>
