<svg width="45" height="45" viewBox="0 0 45 45" fill="none" xmlns="http://www.w3.org/2000/svg">
<rect x="0.5" y="0.5" width="44" height="44" rx="22" fill="url(#paint0_linear_123_947)"/>
<rect x="0.5" y="0.5" width="44" height="44" rx="22" stroke="#162635"/>
<path d="M23.6666 16.6667C23.6666 19.244 21.5772 21.3333 18.9999 21.3333C16.4226 21.3333 14.3333 19.244 14.3333 16.6667C14.3333 14.0893 16.4226 12 18.9999 12C21.5772 12 23.6666 14.0893 23.6666 16.6667Z" stroke="#B0B5C4" stroke-width="0.9975"/>
<path d="M26 21.3333C28.5773 21.3333 30.6667 19.244 30.6667 16.6667C30.6667 14.0893 28.5773 12 26 12" stroke="#B0B5C4" stroke-width="0.9975"/>
<path d="M21.3333 24.8333H16.6666C13.4449 24.8333 10.8333 27.445 10.8333 30.6666C10.8333 31.9553 11.8779 32.9999 13.1666 32.9999H24.8333C26.122 32.9999 27.1666 31.9553 27.1666 30.6666C27.1666 27.445 24.5549 24.8333 21.3333 24.8333Z" stroke="#B0B5C4" stroke-width="0.9975"/>
<path d="M28.3333 24.8333C31.5549 24.8333 34.1666 27.445 34.1666 30.6666C34.1666 31.9553 33.122 32.9999 31.8333 32.9999H30.0833" stroke="#B0B5C4" stroke-width="0.9975"/>
<path d="M19.4375 21.625C22.0954 21.625 24.25 19.4704 24.25 16.8125C24.25 14.1546 22.0954 12 19.4375 12C16.7796 12 14.625 14.1546 14.625 16.8125C14.625 19.4704 16.7796 21.625 19.4375 21.625Z" fill="url(#paint1_linear_123_947)" fill-opacity="0.24"/>
<path d="M19 33.4377C23.3492 33.4377 26.875 33.0331 26.875 30.3752C26.875 27.7174 22.5 23.8127 18.5625 24.6877C14.2133 24.6877 11.125 27.7174 11.125 30.3752C11.125 33.0331 14.6508 33.4377 19 33.4377Z" fill="url(#paint2_linear_123_947)" fill-opacity="0.24"/>
<defs>
<linearGradient id="paint0_linear_123_947" x1="-0.0499995" y1="2.7" x2="45.6" y2="44.5" gradientUnits="userSpaceOnUse">
<stop stop-color="#172736"/>
<stop offset="1" stop-color="#03070C"/>
</linearGradient>
<linearGradient id="paint1_linear_123_947" x1="19.4375" y1="12" x2="19.4375" y2="21.625" gradientUnits="userSpaceOnUse">
<stop stop-color="white" stop-opacity="0"/>
<stop offset="1" stop-color="white"/>
</linearGradient>
<linearGradient id="paint2_linear_123_947" x1="19" y1="25.1252" x2="19" y2="34.7502" gradientUnits="userSpaceOnUse">
<stop stop-color="white" stop-opacity="0"/>
<stop offset="1" stop-color="white"/>
</linearGradient>
</defs>
</svg>
