<svg width="45" height="45" viewBox="0 0 45 45" fill="none" xmlns="http://www.w3.org/2000/svg">
<rect x="0.5" y="0.5" width="44" height="44" rx="22" fill="url(#paint0_linear_123_983)"/>
<rect x="0.5" y="0.5" width="44" height="44" rx="22" stroke="#162635"/>
<path d="M19.8951 30.4902L22.5 24.8335L25.1049 30.4902C25.8605 32.1309 26.2382 32.9512 25.8381 33.5434C25.8271 33.5596 25.8158 33.5756 25.8041 33.5913C25.3769 34.1668 24.4179 34.1668 22.5 34.1668C20.5821 34.1668 19.6231 34.1668 19.1959 33.5913C19.1842 33.5756 19.1729 33.5596 19.162 33.5434C18.7618 32.9512 19.1396 32.1309 19.8951 30.4902Z" stroke="#B0B5C4" stroke-width="0.9975" stroke-linecap="round" stroke-linejoin="round"/>
<path d="M22.5001 24.8332C23.7887 24.8332 24.8334 23.7885 24.8334 22.4998C24.8334 21.2112 23.7887 20.1665 22.5001 20.1665C21.2114 20.1665 20.1667 21.2112 20.1667 22.4998C20.1667 23.7885 21.2114 24.8332 22.5001 24.8332Z" stroke="#B0B5C4" stroke-width="0.9975" stroke-linecap="round" stroke-linejoin="round"/>
<path d="M13.1666 29.5013C11.7015 27.5512 10.8333 25.127 10.8333 22.5002C10.8333 16.0568 16.0566 10.8335 22.4999 10.8335C28.9432 10.8335 34.1666 16.0568 34.1666 22.5002C34.1666 25.127 33.2984 27.5512 31.8333 29.5013" stroke="#B0B5C4" stroke-width="0.9975" stroke-linecap="round" stroke-linejoin="round"/>
<path d="M17.2824 27.1667C16.174 25.9282 15.5 24.2928 15.5 22.5C15.5 18.634 18.634 15.5 22.5 15.5C26.366 15.5 29.5 18.634 29.5 22.5C29.5 24.2928 28.826 25.9282 27.7176 27.1667" stroke="#B0B5C4" stroke-width="0.9975" stroke-linecap="round" stroke-linejoin="round"/>
<path d="M24.0264 28.4438L23.4683 27.1313C23.4683 26.8993 23.5182 26.6016 23.375 26.4375C23.2318 26.2734 22.4789 25.3813 22.2764 25.3813L21.8389 26.2563C21.6363 26.2563 21.9821 26.9673 21.8389 27.1313C21.6957 27.2954 21.4014 27.3368 21.4014 27.5688L18.7764 32.8188C18.7764 33.0509 20.2568 34.1485 20.4 34.3126C20.5432 34.4767 20.7613 34.3126 20.9639 34.3126L24.9014 34.1313C25.1039 34.1313 25.1957 33.8579 25.3389 33.6938C25.4821 33.5298 25.7764 33.9259 25.7764 33.6938V31.6522" fill="url(#paint1_linear_123_983)" fill-opacity="0.24"/>
<defs>
<linearGradient id="paint0_linear_123_983" x1="-0.0499995" y1="2.7" x2="45.6" y2="44.5" gradientUnits="userSpaceOnUse">
<stop stop-color="#172736"/>
<stop offset="1" stop-color="#03070C"/>
</linearGradient>
<linearGradient id="paint1_linear_123_983" x1="23.2" y1="26" x2="23.2" y2="34.75" gradientUnits="userSpaceOnUse">
<stop stop-color="white" stop-opacity="0"/>
<stop offset="1" stop-color="white"/>
</linearGradient>
</defs>
</svg>
