<svg width="45" height="45" viewBox="0 0 45 45" fill="none" xmlns="http://www.w3.org/2000/svg">
<rect x="0.5" y="0.5" width="44" height="44" rx="22" fill="url(#paint0_linear_123_962)"/>
<rect x="0.5" y="0.5" width="44" height="44" rx="22" stroke="#162635"/>
<path d="M33.875 13.75V12C33.875 11.7679 33.7619 11.5454 33.5605 11.3813C33.3591 11.2172 33.0859 11.125 32.8011 11.125H27.0739C26.7891 11.125 26.5159 11.2172 26.3145 11.3813C26.1131 11.5454 26 11.7679 26 12L26.4375 17.25C26.4375 17.482 29.2986 19.7109 29.5 19.875C31.373 19.2563 29.6527 19.875 29.9375 19.875L31.6875 19.6187C31.9723 19.6187 32.7986 18.2891 33 18.125C33.2014 17.9609 33.875 17.482 33.875 17.25V16.9583" fill="url(#paint1_linear_123_962)" fill-opacity="0.24"/>
<path d="M24.8333 34.1667H27.1666M24.8333 34.1667C23.8668 34.1667 23.0833 33.3831 23.0833 32.4167V29.5H22.4999M24.8333 34.1667H20.1666M22.4999 29.5H21.9166V32.4167C21.9166 33.3831 21.1331 34.1667 20.1666 34.1667M22.4999 29.5V34.1667M20.1666 34.1667H17.8333" stroke="#B0B5C4" stroke-width="0.9975" stroke-linecap="round" stroke-linejoin="round"/>
<path d="M21.3333 13.1665H17.8333C14.5334 13.1665 12.8835 13.1665 11.8584 14.1916C10.8333 15.2168 10.8333 16.8667 10.8333 20.1665V22.4998C10.8333 25.7996 10.8333 27.4495 11.8584 28.4747C12.8835 29.4998 14.5334 29.4998 17.8333 29.4998H27.1666C30.4664 29.4998 32.1163 29.4998 33.1414 28.4747C34.0379 27.5782 34.1505 26.204 34.1646 23.6665" stroke="#B0B5C4" stroke-width="0.9975" stroke-linecap="round" stroke-linejoin="round"/>
<path d="M34.1667 15.0573V12.7577C34.1667 12.396 33.901 12.0958 33.5565 12.0342C32.168 11.786 31.0155 11.2338 30.4532 10.9275C30.223 10.8021 29.9437 10.8021 29.7135 10.9275C29.1512 11.2338 27.9986 11.786 26.6102 12.0342C26.2656 12.0958 26 12.396 26 12.7577V15.0573C26 18.0573 28.9661 19.6936 29.8424 20.1115C29.997 20.1853 30.1697 20.1853 30.3242 20.1115C31.2005 19.6936 34.1667 18.0573 34.1667 15.0573Z" stroke="#B0B5C4" stroke-width="0.9975" stroke-linecap="round" stroke-linejoin="round"/>
<defs>
<linearGradient id="paint0_linear_123_962" x1="-0.0499995" y1="2.7" x2="45.6" y2="44.5" gradientUnits="userSpaceOnUse">
<stop stop-color="#172736"/>
<stop offset="1" stop-color="#03070C"/>
</linearGradient>
<linearGradient id="paint1_linear_123_962" x1="29.9375" y1="11.125" x2="29.9375" y2="19.875" gradientUnits="userSpaceOnUse">
<stop stop-color="white" stop-opacity="0"/>
<stop offset="1" stop-color="white"/>
</linearGradient>
</defs>
</svg>
